<svg width="1711" height="504" viewBox="0 0 1711 504" fill="none" xmlns="http://www.w3.org/2000/svg">
<path d="M570.016 286.641C574.586 286.641 577.516 283.711 577.516 278.789V146.25H578.219L634.234 277.734C636.227 282.422 639.273 284.531 643.961 284.531C648.648 284.531 651.578 282.422 653.688 277.5L709.703 146.25H710.406V278.789C710.406 283.711 713.219 286.641 717.906 286.641C722.594 286.641 725.406 283.711 725.406 278.789V124.102C725.406 118.125 721.422 114.258 715.445 114.258C710.055 114.258 706.656 116.836 704.195 122.578L644.312 263.906H643.609L583.492 122.578C581.031 116.836 577.867 114.258 572.477 114.258C566.5 114.258 562.516 118.125 562.516 124.102V278.789C562.516 283.711 565.328 286.641 570.016 286.641ZM804.742 286.992C827.477 286.992 845.172 276.562 852.086 259.219C852.789 257.461 853.258 255.703 853.258 254.414C853.258 250.195 850.445 247.617 846.344 247.617C843.766 247.617 842.008 248.672 840.484 251.016C832.516 266.25 821.031 273.398 804.039 273.398C779.781 273.398 764.43 256.406 764.43 227.812H846.578C852.32 227.812 855.719 224.297 855.719 218.438C855.719 184.57 834.156 161.133 802.984 161.133C770.055 161.133 748.492 185.977 748.492 224.648C748.492 263.789 769.703 286.992 804.742 286.992ZM764.547 215.508C765.836 190.898 781.07 174.727 802.867 174.727C824.547 174.727 839.43 191.016 839.781 215.508H764.547ZM922.516 286.992C943.141 286.992 957.789 275.273 963.883 258.633H964.234V279.375C964.234 283.945 967.867 286.992 972.203 286.992C976.656 286.992 979.82 283.828 979.82 279.375V122.227C979.82 117.305 976.539 113.906 971.969 113.906C967.398 113.906 964.234 117.305 964.234 122.227V188.203H963.883C957.438 172.383 941.852 161.133 922.164 161.133C891.578 161.133 870.367 186.094 870.367 224.062C870.367 261.914 891.695 286.992 922.516 286.992ZM925.211 273.281C901.773 273.281 886.305 253.828 886.305 224.062C886.305 194.297 901.773 174.844 925.211 174.844C948.414 174.844 964.352 194.648 964.352 224.062C964.352 253.594 948.414 273.281 925.211 273.281ZM1016.5 138.516C1022.24 138.516 1026.93 133.945 1026.93 128.203C1026.93 122.578 1022.24 118.008 1016.5 118.008C1010.88 118.008 1006.19 122.578 1006.19 128.203C1006.19 133.945 1010.88 138.516 1016.5 138.516ZM1016.5 286.992C1021.07 286.992 1024.23 283.594 1024.23 278.672V169.453C1024.23 164.531 1021.07 161.133 1016.5 161.133C1011.93 161.133 1008.77 164.531 1008.77 169.453V278.672C1008.77 283.594 1011.93 286.992 1016.5 286.992ZM1129 287.812C1179.04 287.812 1210.56 254.297 1210.56 200.508C1210.56 146.602 1179.04 112.969 1129 112.969C1078.84 112.969 1047.44 146.602 1047.44 200.508C1047.44 254.297 1078.84 287.812 1129 287.812ZM1129 258.281C1101.23 258.281 1083.53 235.898 1083.53 200.508C1083.53 165 1101.34 142.5 1129 142.5C1156.66 142.5 1174.35 165 1174.35 200.508C1174.35 235.898 1156.66 258.281 1129 258.281ZM1247.59 287.461C1257.67 287.461 1264.7 281.367 1264.7 269.648V212.93C1264.7 196.641 1274.43 185.391 1289.78 185.391C1305.13 185.391 1312.87 194.766 1312.87 211.172V269.648C1312.87 281.367 1319.9 287.461 1329.98 287.461C1339.94 287.461 1347.09 281.367 1347.09 269.648V204.023C1347.09 174.609 1331.38 157.031 1303.49 157.031C1284.16 157.031 1271.5 165.586 1264.82 181.172H1264.12V174.141C1264.12 163.359 1257.32 156.797 1247.01 156.797C1236.7 156.797 1230.48 163.359 1230.48 174.023V269.648C1230.48 281.367 1237.63 287.461 1247.59 287.461ZM1405.91 286.992C1421.62 286.992 1437.32 279.141 1444.35 265.781H1445.05V272.227C1445.76 282.305 1452.2 287.461 1461.46 287.461C1471.19 287.461 1478.1 281.602 1478.1 270.234V198.633C1478.1 173.32 1457.12 156.68 1424.9 156.68C1398.88 156.68 1378.73 165.938 1372.87 180.938C1371.7 183.516 1371.11 185.977 1371.11 188.672C1371.11 196.406 1377.09 201.797 1385.41 201.797C1390.91 201.797 1395.25 199.688 1399 195.469C1406.62 185.625 1412.95 182.227 1423.38 182.227C1436.27 182.227 1444.47 189.023 1444.47 200.742V209.062L1412.83 210.938C1381.42 212.812 1363.84 226.055 1363.84 248.906C1363.84 271.523 1382.01 286.992 1405.91 286.992ZM1417.16 262.266C1405.68 262.266 1397.95 256.406 1397.95 247.031C1397.95 238.125 1405.21 232.383 1417.98 231.445L1444.47 229.805V238.945C1444.47 252.539 1432.16 262.266 1417.16 262.266ZM1517.36 287.461C1527.44 287.461 1534.47 281.25 1534.47 269.648V209.18C1534.47 195.117 1543.26 185.273 1556.27 185.273C1568.92 185.273 1576.54 193.242 1576.54 206.719V269.648C1576.54 281.25 1582.87 287.461 1592.95 287.461C1603.14 287.461 1609.47 281.25 1609.47 269.648V208.711C1609.47 194.766 1618.02 185.273 1631.03 185.273C1644.27 185.273 1651.54 193.242 1651.54 207.773V269.648C1651.54 281.25 1658.45 287.461 1668.53 287.461C1678.73 287.461 1685.76 281.25 1685.76 269.648V199.219C1685.76 173.906 1669.23 157.031 1644.62 157.031C1626.23 157.031 1611.23 166.992 1605.6 182.812H1604.9C1600.68 166.406 1588.02 157.031 1569.86 157.031C1552.75 157.031 1539.27 166.992 1534 182.109H1533.3V174.258C1533.3 162.773 1526.5 156.797 1516.77 156.797C1507.05 156.797 1500.25 162.773 1500.25 174.258V269.648C1500.25 281.25 1507.16 287.461 1517.36 287.461Z" fill="black"/>
<circle cx="245" cy="200" r="200" fill="#5477EE"/>
<path fill-rule="evenodd" clip-rule="evenodd" d="M312.708 388.248C310.83 387.562 308.927 386.813 307 386C196.543 386 61 259.457 61 149C61 137.446 61.9798 126.121 63.8607 115.103C51.7616 140.873 45 169.647 45 200C45 310.457 134.543 400 245 400C268.765 400 291.563 395.855 312.708 388.248Z" fill="#2C4DB9"/>
<rect x="215.143" y="105" width="58.8095" height="190" rx="20" fill="white"/>
<rect x="150" y="229.857" width="58.8095" height="190" rx="20" transform="rotate(-90 150 229.857)" fill="white"/>
<path d="M14.0199 201.101C7.00667 203.505 4.30158 205.509 2.19762 209.817C-1.80992 218.333 -0.908222 224.845 9.71176 263.318C22.8365 310.406 29.9498 330.144 38.5661 342.667C44.7777 351.684 59.9062 364.107 80.1443 376.631C90.6641 383.043 102.086 391.559 110.602 399.073C126.632 413.3 140.358 441.854 152.38 486.237C154.484 493.751 156.688 499.763 157.59 500.464C162.199 503.87 181.936 503.269 200.571 499.262C219.306 495.254 242.85 487.84 244.353 485.436C245.956 482.931 244.954 480.727 237.04 468.103C220.308 441.453 212.694 425.122 201.873 393.563C186.845 349.28 179.431 339.962 136.45 311.909C113.808 297.182 101.685 287.463 93.4694 277.545C80.4449 261.815 68.823 257.507 60.9081 265.422C56.8004 269.429 56.099 275.04 58.6038 282.955C61.3089 291.671 66.8192 299.386 76.6377 308.202C96.8758 326.336 107.897 338.058 107.897 341.565C107.897 342.266 90.2633 331.346 80.8456 324.733C75.5356 321.026 64.8154 310.206 58.8041 302.391C52.9932 294.977 48.1842 284.959 46.6813 277.444C45.0783 269.129 46.481 264.32 52.4923 258.509C56.1992 254.802 56.9006 253.6 56.2994 251.395C54.8968 245.785 40.5698 218.333 35.5604 211.821C26.9442 200.5 22.4357 198.295 14.0199 201.101Z" fill="#EBC39E"/>
<path d="M474.98 202.101C481.993 204.505 484.698 206.509 486.802 210.817C490.81 219.333 489.908 225.845 479.288 264.318C466.164 311.406 459.05 331.144 450.434 343.667C444.222 352.684 429.094 365.107 408.856 377.631C398.336 384.043 386.914 392.559 378.398 400.073C362.368 414.3 348.642 442.854 336.62 487.237C334.516 494.751 332.312 500.763 331.41 501.464C326.801 504.87 307.064 504.269 288.429 500.262C269.694 496.254 246.15 488.84 244.647 486.436C243.044 483.931 244.046 481.727 251.96 469.103C268.692 442.453 276.306 426.122 287.127 394.563C302.155 350.28 309.569 340.962 352.55 312.909C375.192 298.182 387.315 288.463 395.531 278.545C408.555 262.815 420.177 258.507 428.092 266.422C432.2 270.429 432.901 276.04 430.396 283.955C427.691 292.671 422.181 300.386 412.362 309.202C392.124 327.336 381.103 339.058 381.103 342.565C381.103 343.266 398.737 332.346 408.154 325.733C413.464 322.026 424.185 311.206 430.196 303.391C436.007 295.977 440.816 285.959 442.319 278.444C443.922 270.129 442.519 265.32 436.508 259.509C432.801 255.802 432.099 254.6 432.701 252.395C434.103 246.785 448.43 219.333 453.44 212.821C462.056 201.5 466.564 199.295 474.98 202.101Z" fill="#EBC39E"/>
</svg>
